<?xml version="1.0" encoding="UTF-8"?><svg id="Layer_1" xmlns="http://www.w3.org/2000/svg" viewBox="0 0 136.98 128.17"><defs><style>.cls-1{fill:#f5949f;}</style></defs><path class="cls-1" d="M68.49,5.99c-32.08,0-58.09,26.01-58.09,58.09s26.01,58.09,58.09,58.09,58.09-26.01,58.09-58.09S100.57,5.99,68.49,5.99Zm-9.68,77.46h-9.68v-29.05h9.68v29.05Zm-4.84-33.36c-2.94,0-5.33-2.4-5.33-5.37s2.38-5.37,5.33-5.37,5.33,2.41,5.33,5.37-2.39,5.37-5.33,5.37Zm38.73,33.36h-9.67v-13.85c0-9.11-9.69-8.34-9.69,0v13.85h-9.68v-29.05h9.68v5.29c4.22-7.82,19.36-8.4,19.36,7.49v16.26Z"/></svg>