<?xml version="1.0" encoding="UTF-8"?><svg id="Layer_1" xmlns="http://www.w3.org/2000/svg" viewBox="0 0 136.98 128.17"><defs><style>.cls-1{fill:#f5949f;}</style></defs><path class="cls-1" d="M53.22,58.46h-9.5v-8.99h8.62c9.08,0,7.96,8.99,.88,8.99Zm27.98,5.11h12.68c-.56-8.15-11.41-8.75-12.68,0Zm-28.52,1.91h-8.96v9.41h8.82c8.61,0,8.09-9.41,.14-9.41Zm73.81-1.4c0,32.03-25.97,58-58,58S10.49,96.12,10.49,64.09,36.46,6.09,68.49,6.09s58,25.97,58,58Zm-64.56-3.54c8.06-4.12,7.77-19.24-7.67-19.47h-19.6v42.19h18.23c19.13,0,18.81-19.17,9.05-22.73Zm16.23-15.3h19.33v-4.23h-19.33v4.23Zm23.89,17.85c-2.63-16.94-29.26-17.94-29.26,4.21s25.04,18.45,28.75,7.54h-8.93c-3.12,3.62-12.12,2.57-11.62-5.72h21.32c.04-2.68-.04-4.61-.26-6.03Z"/></svg>